<svg width="26" height="26" viewBox="0 0 26 26" fill="none" xmlns="http://www.w3.org/2000/svg">
<path d="M13 0C19.9143 0 25.5668 5.39746 25.9756 12.209C25.8946 12.0474 25.7857 11.9269 25.6436 11.8828C23.7001 11.2813 21.6591 10.3896 20.3682 9.09863C19.0773 7.80767 18.1855 5.76663 17.584 3.82324C17.3787 3.1624 15.5546 3.16231 15.3496 3.82324C14.7481 5.76669 13.8564 7.80767 12.5654 9.09863C11.2745 10.3895 9.23429 11.2813 7.29102 11.8828C6.62971 12.0875 6.62971 13.9125 7.29102 14.1172C9.23429 14.7187 11.2745 15.6105 12.5654 16.9014C13.8564 18.1923 14.7481 20.2333 15.3496 22.1768C15.5546 22.8377 17.3787 22.8376 17.584 22.1768C18.1855 20.2334 19.0773 18.1923 20.3682 16.9014C21.6591 15.6104 23.7001 14.7187 25.6436 14.1172C25.786 14.0731 25.8945 13.952 25.9756 13.79C25.5672 20.6019 19.9145 26 13 26C5.8203 25.9998 5.36027e-05 20.1797 0 13C0 5.82023 5.82027 0.000160812 13 0Z" fill="url(#paint0_linear_185_72)"/>
<defs>
<linearGradient id="paint0_linear_185_72" x1="26" y1="1.70686e-06" x2="3" y2="36.5" gradientUnits="userSpaceOnUse">
<stop stop-color="#D2AEFF"/>
<stop offset="1" stop-color="#7BB4FF"/>
</linearGradient>
</defs>
</svg>
