<svg width="104" height="26" viewBox="0 0 104 26" fill="none" xmlns="http://www.w3.org/2000/svg">
<path d="M13 0C19.9143 0 25.5668 5.39746 25.9756 12.209C25.8946 12.0474 25.7857 11.9269 25.6436 11.8828C23.7001 11.2813 21.6591 10.3896 20.3682 9.09863C19.0773 7.80767 18.1855 5.76663 17.584 3.82324C17.3787 3.1624 15.5546 3.16231 15.3496 3.82324C14.7481 5.76669 13.8564 7.80767 12.5654 9.09863C11.2745 10.3895 9.23429 11.2813 7.29102 11.8828C6.62971 12.0875 6.62971 13.9125 7.29102 14.1172C9.23429 14.7187 11.2745 15.6105 12.5654 16.9014C13.8564 18.1923 14.7481 20.2333 15.3496 22.1768C15.5546 22.8377 17.3787 22.8376 17.584 22.1768C18.1855 20.2334 19.0773 18.1923 20.3682 16.9014C21.6591 15.6104 23.7001 14.7187 25.6436 14.1172C25.786 14.0731 25.8945 13.952 25.9756 13.79C25.5672 20.6019 19.9145 26 13 26C5.8203 25.9998 5.36027e-05 20.1797 0 13C0 5.82023 5.82027 0.000160812 13 0Z" fill="url(#paint0_linear_115_359)"/>
<path d="M40.9195 19.676C39.6928 19.676 38.6155 19.4253 37.6875 18.924C36.7595 18.4227 36.0395 17.7347 35.5275 16.86C35.0262 15.9747 34.7755 14.988 34.7755 13.9C34.7755 12.8227 35.0315 11.8467 35.5435 10.972C36.0555 10.0867 36.7702 9.39333 37.6875 8.892C38.6155 8.38 39.6608 8.124 40.8235 8.124C41.6982 8.124 42.4768 8.236 43.1595 8.46C43.8528 8.684 44.4182 8.972 44.8555 9.324V11.644H44.7275C44.2262 11.1747 43.6502 10.812 42.9995 10.556C42.3595 10.2893 41.6768 10.156 40.9515 10.156C40.1835 10.156 39.4955 10.3213 38.8875 10.652C38.2795 10.9827 37.8048 11.436 37.4635 12.012C37.1328 12.5773 36.9675 13.2067 36.9675 13.9C36.9675 14.604 37.1328 15.2387 37.4635 15.804C37.7942 16.3693 38.2688 16.8173 38.8875 17.148C39.5062 17.4787 40.2155 17.644 41.0155 17.644C41.7302 17.644 42.3968 17.532 43.0155 17.308C43.6448 17.0733 44.2475 16.6947 44.8235 16.172H44.9515V18.364C44.4928 18.7693 43.9115 19.0893 43.2075 19.324C42.5035 19.5587 41.7408 19.676 40.9195 19.676ZM54.0009 8.3H57.4249L62.4809 19.5H60.0809L55.9529 10.284H55.4729L51.3289 19.5H48.9289L54.0009 8.3ZM51.8729 14.844H59.5689V16.636H51.8729V14.844ZM67.0446 8.3H71.8126C73.3593 8.3 74.538 8.64133 75.3486 9.324C76.1593 9.996 76.5646 10.9133 76.5646 12.076C76.5646 12.7907 76.378 13.4413 76.0046 14.028C75.6313 14.604 75.082 15.0627 74.3566 15.404C73.642 15.7347 72.7833 15.9 71.7806 15.9H68.9486V14.188H71.7486C72.346 14.188 72.842 14.0973 73.2366 13.916C73.6313 13.724 73.9246 13.4787 74.1166 13.18C74.3086 12.8813 74.4046 12.556 74.4046 12.204C74.4046 11.6067 74.186 11.1427 73.7486 10.812C73.322 10.4707 72.6553 10.3 71.7486 10.3H68.3086L69.2046 9.404V19.5H67.0446V8.3ZM69.2526 15.052H71.9566L76.6766 19.5H73.7486L69.2526 15.052ZM84.1089 8.3V18.316L83.1969 17.42H90.2369V19.5H81.9009V8.3H84.1089ZM94.0298 8.3L98.0298 13.612H97.0058L100.99 8.3H103.694L98.6058 14.956V19.5H96.4138V14.956L91.3258 8.3H94.0298Z" fill="black" fill-opacity="0.5"/>
<defs>
<linearGradient id="paint0_linear_115_359" x1="26" y1="1.70686e-06" x2="3" y2="36.5" gradientUnits="userSpaceOnUse">
<stop stop-color="#D2AEFF"/>
<stop offset="1" stop-color="#7BB4FF"/>
</linearGradient>
</defs>
</svg>
